<?xml version="1.0" encoding="UTF-8" standalone="no"?>
<!DOCTYPE svg PUBLIC "-//W3C//DTD SVG 1.1//EN"
 "http://www.w3.org/Graphics/SVG/1.1/DTD/svg11.dtd">
<!-- Generated by graphviz version 14.1.1 (20251213.1925)
 -->
<!-- Title: InheritanceTree Pages: 1 -->
<svg width="468pt" height="717pt"
 viewBox="0.00 0.00 468.00 717.00" xmlns="http://www.w3.org/2000/svg" xmlns:xlink="http://www.w3.org/1999/xlink">
<g id="graph0" class="graph" transform="scale(1 1) rotate(0) translate(4 712.5)">
<title>InheritanceTree</title>
<polygon fill="white" stroke="none" points="-4,4 -4,-712.5 463.5,-712.5 463.5,4 -4,4"/>
<text xml:space="preserve" text-anchor="middle" x="229.75" y="-7.2" font-family="Times New Roman,serif" font-size="14.00">simple_scheduler &#45; Inheritance Hierarchy</text>
<!-- SIMPLE_CRON_EXPRESSION -->
<g id="node1" class="node">
<title>SIMPLE_CRON_EXPRESSION</title>
<path fill="none" stroke="black" d="M197.5,-60.5C197.5,-60.5 24,-60.5 24,-60.5 18,-60.5 12,-54.5 12,-48.5 12,-48.5 12,-36.5 12,-36.5 12,-30.5 18,-24.5 24,-24.5 24,-24.5 197.5,-24.5 197.5,-24.5 203.5,-24.5 209.5,-30.5 209.5,-36.5 209.5,-36.5 209.5,-48.5 209.5,-48.5 209.5,-54.5 203.5,-60.5 197.5,-60.5"/>
<text xml:space="preserve" text-anchor="middle" x="110.75" y="-37.45" font-family="Times New Roman,serif" font-size="14.00">SIMPLE_CRON_EXPRESSION</text>
</g>
<!-- SIMPLE_CRON_TRIGGER -->
<g id="node2" class="node">
<title>SIMPLE_CRON_TRIGGER</title>
<path fill="none" stroke="black" d="M185.88,-276.5C185.88,-276.5 35.62,-276.5 35.62,-276.5 29.62,-276.5 23.62,-270.5 23.62,-264.5 23.62,-264.5 23.62,-252.5 23.62,-252.5 23.62,-246.5 29.62,-240.5 35.62,-240.5 35.62,-240.5 185.88,-240.5 185.88,-240.5 191.88,-240.5 197.88,-246.5 197.88,-252.5 197.88,-252.5 197.88,-264.5 197.88,-264.5 197.88,-270.5 191.88,-276.5 185.88,-276.5"/>
<text xml:space="preserve" text-anchor="middle" x="110.75" y="-253.45" font-family="Times New Roman,serif" font-size="14.00">SIMPLE_CRON_TRIGGER</text>
</g>
<!-- SIMPLE_TRIGGER -->
<g id="node3" class="node">
<title>SIMPLE_TRIGGER</title>
<path fill="none" stroke="black" d="M447.5,-204.5C447.5,-204.5 341.5,-204.5 341.5,-204.5 335.5,-204.5 329.5,-198.5 329.5,-192.5 329.5,-192.5 329.5,-180.5 329.5,-180.5 329.5,-174.5 335.5,-168.5 341.5,-168.5 341.5,-168.5 447.5,-168.5 447.5,-168.5 453.5,-168.5 459.5,-174.5 459.5,-180.5 459.5,-180.5 459.5,-192.5 459.5,-192.5 459.5,-198.5 453.5,-204.5 447.5,-204.5"/>
<text xml:space="preserve" text-anchor="middle" x="394.5" y="-181.45" font-family="Times New Roman,serif" font-size="14.00">SIMPLE_TRIGGER</text>
</g>
<!-- SIMPLE_CRON_TRIGGER&#45;&gt;SIMPLE_TRIGGER -->
<g id="edge1" class="edge">
<title>SIMPLE_CRON_TRIGGER&#45;&gt;SIMPLE_TRIGGER</title>
<path fill="none" stroke="black" d="M198.2,-258.5C281.57,-258.5 394.5,-258.5 394.5,-258.5 394.5,-258.5 394.5,-216.18 394.5,-216.18"/>
<polygon fill="none" stroke="black" points="398,-216.18 394.5,-206.18 391,-216.18 398,-216.18"/>
</g>
<!-- SIMPLE_DATE_TRIGGER -->
<g id="node4" class="node">
<title>SIMPLE_DATE_TRIGGER</title>
<path fill="none" stroke="black" d="M184.38,-204.5C184.38,-204.5 37.12,-204.5 37.12,-204.5 31.12,-204.5 25.12,-198.5 25.12,-192.5 25.12,-192.5 25.12,-180.5 25.12,-180.5 25.12,-174.5 31.12,-168.5 37.12,-168.5 37.12,-168.5 184.38,-168.5 184.38,-168.5 190.38,-168.5 196.38,-174.5 196.38,-180.5 196.38,-180.5 196.38,-192.5 196.38,-192.5 196.38,-198.5 190.38,-204.5 184.38,-204.5"/>
<text xml:space="preserve" text-anchor="middle" x="110.75" y="-181.45" font-family="Times New Roman,serif" font-size="14.00">SIMPLE_DATE_TRIGGER</text>
</g>
<!-- SIMPLE_DATE_TRIGGER&#45;&gt;SIMPLE_TRIGGER -->
<g id="edge2" class="edge">
<title>SIMPLE_DATE_TRIGGER&#45;&gt;SIMPLE_TRIGGER</title>
<path fill="none" stroke="black" d="M196.65,-192.5C196.65,-192.5 317.66,-192.5 317.66,-192.5"/>
<polygon fill="none" stroke="black" points="317.66,-196 327.66,-192.5 317.66,-189 317.66,-196"/>
</g>
<!-- SIMPLE_INTERVAL_TRIGGER -->
<g id="node5" class="node">
<title>SIMPLE_INTERVAL_TRIGGER</title>
<path fill="none" stroke="black" d="M199.75,-132.5C199.75,-132.5 21.75,-132.5 21.75,-132.5 15.75,-132.5 9.75,-126.5 9.75,-120.5 9.75,-120.5 9.75,-108.5 9.75,-108.5 9.75,-102.5 15.75,-96.5 21.75,-96.5 21.75,-96.5 199.75,-96.5 199.75,-96.5 205.75,-96.5 211.75,-102.5 211.75,-108.5 211.75,-108.5 211.75,-120.5 211.75,-120.5 211.75,-126.5 205.75,-132.5 199.75,-132.5"/>
<text xml:space="preserve" text-anchor="middle" x="110.75" y="-109.45" font-family="Times New Roman,serif" font-size="14.00">SIMPLE_INTERVAL_TRIGGER</text>
</g>
<!-- SIMPLE_INTERVAL_TRIGGER&#45;&gt;SIMPLE_TRIGGER -->
<g id="edge3" class="edge">
<title>SIMPLE_INTERVAL_TRIGGER&#45;&gt;SIMPLE_TRIGGER</title>
<path fill="none" stroke="black" d="M204.5,-132.88C204.5,-152.41 204.5,-180.5 204.5,-180.5 204.5,-180.5 317.6,-180.5 317.6,-180.5"/>
<polygon fill="none" stroke="black" points="317.6,-184 327.6,-180.5 317.6,-177 317.6,-184"/>
</g>
<!-- SIMPLE_JOB -->
<g id="node6" class="node">
<title>SIMPLE_JOB</title>
<path fill="none" stroke="black" d="M146.5,-348.5C146.5,-348.5 75,-348.5 75,-348.5 69,-348.5 63,-342.5 63,-336.5 63,-336.5 63,-324.5 63,-324.5 63,-318.5 69,-312.5 75,-312.5 75,-312.5 146.5,-312.5 146.5,-312.5 152.5,-312.5 158.5,-318.5 158.5,-324.5 158.5,-324.5 158.5,-336.5 158.5,-336.5 158.5,-342.5 152.5,-348.5 146.5,-348.5"/>
<text xml:space="preserve" text-anchor="middle" x="110.75" y="-325.45" font-family="Times New Roman,serif" font-size="14.00">SIMPLE_JOB</text>
</g>
<!-- SIMPLE_JOB_RESULT -->
<g id="node7" class="node">
<title>SIMPLE_JOB_RESULT</title>
<path fill="none" stroke="black" d="M175,-420.5C175,-420.5 46.5,-420.5 46.5,-420.5 40.5,-420.5 34.5,-414.5 34.5,-408.5 34.5,-408.5 34.5,-396.5 34.5,-396.5 34.5,-390.5 40.5,-384.5 46.5,-384.5 46.5,-384.5 175,-384.5 175,-384.5 181,-384.5 187,-390.5 187,-396.5 187,-396.5 187,-408.5 187,-408.5 187,-414.5 181,-420.5 175,-420.5"/>
<text xml:space="preserve" text-anchor="middle" x="110.75" y="-397.45" font-family="Times New Roman,serif" font-size="14.00">SIMPLE_JOB_RESULT</text>
</g>
<!-- SIMPLE_SCHEDULER -->
<g id="node8" class="node">
<title>SIMPLE_SCHEDULER</title>
<path fill="none" stroke="black" d="M174.25,-492.5C174.25,-492.5 47.25,-492.5 47.25,-492.5 41.25,-492.5 35.25,-486.5 35.25,-480.5 35.25,-480.5 35.25,-468.5 35.25,-468.5 35.25,-462.5 41.25,-456.5 47.25,-456.5 47.25,-456.5 174.25,-456.5 174.25,-456.5 180.25,-456.5 186.25,-462.5 186.25,-468.5 186.25,-468.5 186.25,-480.5 186.25,-480.5 186.25,-486.5 180.25,-492.5 174.25,-492.5"/>
<text xml:space="preserve" text-anchor="middle" x="110.75" y="-469.45" font-family="Times New Roman,serif" font-size="14.00">SIMPLE_SCHEDULER</text>
</g>
<!-- SIMPLE_SCHEDULER_LISTENER -->
<g id="node9" class="node">
<title>SIMPLE_SCHEDULER_LISTENER</title>
<path fill="none" stroke="black" d="M209.5,-564.5C209.5,-564.5 12,-564.5 12,-564.5 6,-564.5 0,-558.5 0,-552.5 0,-552.5 0,-540.5 0,-540.5 0,-534.5 6,-528.5 12,-528.5 12,-528.5 209.5,-528.5 209.5,-528.5 215.5,-528.5 221.5,-534.5 221.5,-540.5 221.5,-540.5 221.5,-552.5 221.5,-552.5 221.5,-558.5 215.5,-564.5 209.5,-564.5"/>
<text xml:space="preserve" text-anchor="middle" x="110.75" y="-541.45" font-family="Times New Roman,serif" font-size="14.00">SIMPLE_SCHEDULER_LISTENER</text>
</g>
<!-- LIB_TESTS -->
<g id="node10" class="node">
<title>LIB_TESTS</title>
<path fill="none" stroke="black" d="M140.88,-636.5C140.88,-636.5 80.62,-636.5 80.62,-636.5 74.62,-636.5 68.62,-630.5 68.62,-624.5 68.62,-624.5 68.62,-612.5 68.62,-612.5 68.62,-606.5 74.62,-600.5 80.62,-600.5 80.62,-600.5 140.88,-600.5 140.88,-600.5 146.88,-600.5 152.88,-606.5 152.88,-612.5 152.88,-612.5 152.88,-624.5 152.88,-624.5 152.88,-630.5 146.88,-636.5 140.88,-636.5"/>
<text xml:space="preserve" text-anchor="middle" x="110.75" y="-613.45" font-family="Times New Roman,serif" font-size="14.00">LIB_TESTS</text>
</g>
<!-- TEST_SET_BASE -->
<g id="node11" class="node">
<title>TEST_SET_BASE</title>
<path fill="none" stroke="black" d="M442.62,-636.5C442.62,-636.5 346.38,-636.5 346.38,-636.5 340.38,-636.5 334.38,-630.5 334.38,-624.5 334.38,-624.5 334.38,-612.5 334.38,-612.5 334.38,-606.5 340.38,-600.5 346.38,-600.5 346.38,-600.5 442.62,-600.5 442.62,-600.5 448.62,-600.5 454.62,-606.5 454.62,-612.5 454.62,-612.5 454.62,-624.5 454.62,-624.5 454.62,-630.5 448.62,-636.5 442.62,-636.5"/>
<text xml:space="preserve" text-anchor="middle" x="394.5" y="-613.45" font-family="Times New Roman,serif" font-size="14.00">TEST_SET_BASE</text>
</g>
<!-- LIB_TESTS&#45;&gt;TEST_SET_BASE -->
<g id="edge4" class="edge">
<title>LIB_TESTS&#45;&gt;TEST_SET_BASE</title>
<path fill="none" stroke="black" d="M153.23,-618.5C153.23,-618.5 322.6,-618.5 322.6,-618.5"/>
<polygon fill="none" stroke="black" points="322.6,-622 332.6,-618.5 322.6,-615 322.6,-622"/>
</g>
<!-- TEST_APP -->
<g id="node12" class="node">
<title>TEST_APP</title>
<path fill="none" stroke="black" d="M138.62,-708.5C138.62,-708.5 82.88,-708.5 82.88,-708.5 76.88,-708.5 70.88,-702.5 70.88,-696.5 70.88,-696.5 70.88,-684.5 70.88,-684.5 70.88,-678.5 76.88,-672.5 82.88,-672.5 82.88,-672.5 138.62,-672.5 138.62,-672.5 144.62,-672.5 150.62,-678.5 150.62,-684.5 150.62,-684.5 150.62,-696.5 150.62,-696.5 150.62,-702.5 144.62,-708.5 138.62,-708.5"/>
<text xml:space="preserve" text-anchor="middle" x="110.75" y="-685.45" font-family="Times New Roman,serif" font-size="14.00">TEST_APP</text>
</g>
</g>
</svg>
