<?xml version="1.0" encoding="UTF-8" standalone="no"?>
<!DOCTYPE svg PUBLIC "-//W3C//DTD SVG 1.1//EN"
 "http://www.w3.org/Graphics/SVG/1.1/DTD/svg11.dtd">
<!-- Generated by graphviz version 14.1.1 (20251213.1925)
 -->
<!-- Title: Dependencies Pages: 1 -->
<svg width="370pt" height="357pt"
 viewBox="0.00 0.00 370.00 357.00" xmlns="http://www.w3.org/2000/svg" xmlns:xlink="http://www.w3.org/1999/xlink">
<g id="graph0" class="graph" transform="scale(1 1) rotate(0) translate(4 352.5)">
<title>Dependencies</title>
<polygon fill="white" stroke="none" points="-4,4 -4,-352.5 366,-352.5 366,4 -4,4"/>
<text xml:space="preserve" text-anchor="middle" x="181" y="-7.2" font-family="Times New Roman,serif" font-size="14.00">simple_scheduler &#45; Dependencies</text>
<!-- simple_scheduler -->
<g id="node1" class="node">
<title>simple_scheduler</title>
<polygon fill="lightblue" stroke="black" points="111.25,-204.5 0,-204.5 0,-168.5 111.25,-168.5 111.25,-204.5"/>
<text xml:space="preserve" text-anchor="middle" x="55.62" y="-181.45" font-family="Times New Roman,serif" font-size="14.00">simple_scheduler</text>
</g>
<!-- simple_datetime -->
<g id="node2" class="node">
<title>simple_datetime</title>
<polygon fill="lightblue" stroke="black" points="362,-348.5 255.25,-348.5 255.25,-312.5 362,-312.5 362,-348.5"/>
<text xml:space="preserve" text-anchor="middle" x="308.62" y="-325.45" font-family="Times New Roman,serif" font-size="14.00">simple_datetime</text>
</g>
<!-- simple_scheduler&#45;&gt;simple_datetime -->
<g id="edge1" class="edge">
<title>simple_scheduler&#45;&gt;simple_datetime</title>
<path fill="none" stroke="black" stroke-dasharray="5,2" d="M37,-204.74C37,-243.49 37,-330.5 37,-330.5 37,-330.5 243.45,-330.5 243.45,-330.5"/>
<polygon fill="black" stroke="black" points="243.45,-334 253.45,-330.5 243.45,-327 243.45,-334"/>
</g>
<!-- simple_mml -->
<g id="node3" class="node">
<title>simple_mml</title>
<polygon fill="lightblue" stroke="black" points="351.5,-276.5 265.75,-276.5 265.75,-240.5 351.5,-240.5 351.5,-276.5"/>
<text xml:space="preserve" text-anchor="middle" x="308.62" y="-253.45" font-family="Times New Roman,serif" font-size="14.00">simple_mml</text>
</g>
<!-- simple_scheduler&#45;&gt;simple_mml -->
<g id="edge2" class="edge">
<title>simple_scheduler&#45;&gt;simple_mml</title>
<path fill="none" stroke="black" stroke-dasharray="5,2" d="M74,-204.67C74,-226 74,-258.5 74,-258.5 74,-258.5 253.8,-258.5 253.8,-258.5"/>
<polygon fill="black" stroke="black" points="253.8,-262 263.8,-258.5 253.8,-255 253.8,-262"/>
</g>
<!-- simple_testing -->
<g id="node4" class="node">
<title>simple_testing</title>
<polygon fill="lightblue" stroke="black" points="356.38,-204.5 260.88,-204.5 260.88,-168.5 356.38,-168.5 356.38,-204.5"/>
<text xml:space="preserve" text-anchor="middle" x="308.62" y="-181.45" font-family="Times New Roman,serif" font-size="14.00">simple_testing</text>
</g>
<!-- simple_scheduler&#45;&gt;simple_testing -->
<g id="edge3" class="edge">
<title>simple_scheduler&#45;&gt;simple_testing</title>
<path fill="none" stroke="black" stroke-dasharray="5,2" d="M111.46,-186.5C111.46,-186.5 249.08,-186.5 249.08,-186.5"/>
<polygon fill="black" stroke="black" points="249.08,-190 259.08,-186.5 249.08,-183 249.08,-190"/>
</g>
<!-- base -->
<g id="node5" class="node">
<title>base</title>
<polygon fill="lightgray" stroke="black" points="335.62,-132.5 281.62,-132.5 281.62,-96.5 335.62,-96.5 335.62,-132.5"/>
<text xml:space="preserve" text-anchor="middle" x="308.62" y="-109.45" font-family="Times New Roman,serif" font-size="14.00">base</text>
</g>
<!-- simple_scheduler&#45;&gt;base -->
<g id="edge4" class="edge">
<title>simple_scheduler&#45;&gt;base</title>
<path fill="none" stroke="black" stroke-dasharray="5,2" d="M74,-168.33C74,-147 74,-114.5 74,-114.5 74,-114.5 269.74,-114.5 269.74,-114.5"/>
<polygon fill="black" stroke="black" points="269.74,-118 279.74,-114.5 269.74,-111 269.74,-118"/>
</g>
<!-- testing -->
<g id="node6" class="node">
<title>testing</title>
<polygon fill="lightgray" stroke="black" points="335.62,-60.5 281.62,-60.5 281.62,-24.5 335.62,-24.5 335.62,-60.5"/>
<text xml:space="preserve" text-anchor="middle" x="308.62" y="-37.45" font-family="Times New Roman,serif" font-size="14.00">testing</text>
</g>
<!-- simple_scheduler&#45;&gt;testing -->
<g id="edge5" class="edge">
<title>simple_scheduler&#45;&gt;testing</title>
<path fill="none" stroke="black" stroke-dasharray="5,2" d="M37,-168.26C37,-129.51 37,-42.5 37,-42.5 37,-42.5 269.82,-42.5 269.82,-42.5"/>
<polygon fill="black" stroke="black" points="269.82,-46 279.82,-42.5 269.82,-39 269.82,-46"/>
</g>
</g>
</svg>
